<?xml version="1.0" standalone="no"?>
<!DOCTYPE svg PUBLIC "-//W3C//DTD SVG 20010904//EN"
 "http://www.w3.org/TR/2001/REC-SVG-20010904/DTD/svg10.dtd">
<svg version="1.0" xmlns="http://www.w3.org/2000/svg"
 width="16.000000pt" height="16.000000pt" viewBox="0 0 16.000000 16.000000"
 preserveAspectRatio="xMidYMid meet">
<metadata>
Created by potrace 1.11, written by Peter Selinger 2001-2013
</metadata>
<g transform="translate(0.000000,16.000000) scale(0.008081,-0.008081)"
fill="#000000" stroke="none">
<path d="M1617 1819 c-233 -42 -375 -107 -632 -293 -150 -108 -190 -129 -239
-123 -23 3 -49 16 -64 30 -33 33 -24 71 31 126 l42 43 -30 -8 c-107 -25 -294
-109 -400 -179 -100 -65 -194 -168 -242 -265 -37 -75 -50 -108 -71 -195 -3
-11 -5 -76 -5 -145 0 -103 4 -136 22 -190 36 -104 89 -190 165 -266 67 -66
180 -144 211 -144 7 0 15 -4 17 -8 3 -9 101 -40 158 -50 45 -8 215 -8 260 0
197 36 377 152 439 283 27 57 27 56 -8 39 -30 -15 -61 -10 -61 10 0 6 25 38
56 71 111 120 179 246 314 585 99 247 167 391 229 485 46 71 142 175 161 175
18 0 11 27 -9 33 -42 11 -253 2 -344 -14z"/>
</g>
</svg>
